<svg width="318" height="222" viewBox="0 0 318 222" fill="none" xmlns="http://www.w3.org/2000/svg">
<path d="M66.8223 59.9651L61.9188 60.9428C51.0864 63.1027 44.0559 73.6352 46.2159 84.4676L69.2903 200.19C71.4502 211.022 81.9826 218.052 92.8151 215.893L97.7186 214.915" stroke="white" stroke-width="10" stroke-linecap="round"/>
<path d="M202.5 171.5L202.743 172.438C205.648 183.671 198.417 195.011 187.007 197.115L160.518 202" stroke="white" stroke-width="10" stroke-linecap="round"/>
<path d="M150 40.7684L155.006 39.7958C165.81 37.6964 176.281 44.722 178.434 55.5162L190 113.5" stroke="white" stroke-width="10" stroke-linecap="round"/>
<path d="M80.5318 58.1619L80.3009 57.0041C78.897 49.963 83.4668 43.1169 90.5079 41.713L122.956 35.2429C129.997 33.839 136.843 38.4087 138.247 45.4498L138.478 46.6076C139.882 53.6487 135.312 60.4948 128.271 61.8988L95.8229 68.3688C88.7818 69.7728 81.9358 65.203 80.5318 58.1619Z" stroke="white" stroke-width="10" stroke-linecap="round"/>
<path d="M31.7784 86.7542L11.7562 186.49C10.4982 192.756 13.9824 199.008 19.9741 201.234L59.2549 215.83" stroke="white" stroke-width="10" stroke-linecap="round"/>
<path d="M45.2543 52.5767L44.5456 28.1685C44.5038 26.7299 45.9495 25.7194 47.2862 26.253L67.1156 34.1685" stroke="white" stroke-width="8" stroke-linecap="round"/>
<path d="M164.826 26.3417L155 6.01904C154.374 4.72333 152.625 4.49358 151.685 5.58351L138.812 20.5116" stroke="white" stroke-width="8" stroke-linecap="round"/>
<path d="M94.7589 92L153.759 80" stroke="white" stroke-width="8" stroke-linecap="round"/>
<circle cx="77.7589" cy="96" r="5" fill="white"/>
<circle cx="98" cy="179" r="5" fill="white"/>
<path d="M118.293 178.936L118.063 178.983C115.954 179.276 113.982 178.886 112.149 177.813C110.134 176.554 108.879 174.731 108.386 172.344C108.028 170.615 108.206 168.927 108.918 167.28C109.332 166.428 109.914 165.925 110.664 165.77C111.062 165.688 111.512 165.706 112.016 165.826C112.618 166.036 113.071 166.453 113.375 167.076C113.481 167.278 113.554 167.478 113.595 167.677C113.681 168.09 113.639 168.506 113.47 168.923C113.331 169.176 113.213 169.495 113.118 169.882L113.158 169.73L113.163 169.753C113.127 169.808 113.105 169.86 113.1 169.91C113.109 169.955 113.108 169.988 113.096 170.006C113.058 170.285 113.044 170.488 113.054 170.613C113.06 170.723 113.056 170.82 113.042 170.903C113.02 170.796 113.013 170.725 113.022 170.691L113.003 170.6C113.018 170.597 113.027 170.603 113.031 170.618L113.031 170.737L113.06 170.875C113.054 170.924 113.094 171.155 113.179 171.568C113.233 171.829 113.263 171.974 113.269 172.004C113.291 172.032 113.313 172.059 113.334 172.087L113.339 172.11L113.362 172.105L113.343 172.013L113.199 171.78C113.249 171.865 113.292 171.96 113.33 172.064C113.423 172.284 113.532 172.501 113.656 172.714L113.762 172.884L113.739 172.889L113.735 172.866C113.679 172.829 113.645 172.78 113.633 172.719L113.591 172.632L113.693 172.779C113.742 172.864 113.889 173.033 114.133 173.286L114.286 173.446L114.05 173.231C114.142 173.292 114.238 173.368 114.336 173.459L114.839 173.81C114.892 173.831 114.927 173.848 114.946 173.86C114.979 173.869 114.998 173.881 115.001 173.896L114.706 173.742L114.946 173.86L115.494 174.081C115.525 174.075 115.558 174.084 115.595 174.108C115.647 174.13 115.707 174.149 115.775 174.167C115.842 174.185 115.885 174.2 115.904 174.212C115.938 174.221 115.994 174.225 116.074 174.225C115.961 174.216 115.904 174.212 115.904 174.212L115.752 174.172L115.775 174.167L116.171 174.229L117.04 174.264C116.887 174.296 116.776 174.303 116.709 174.285L116.663 174.295C116.807 174.297 116.986 174.276 117.2 174.231C117.567 174.155 117.772 174.105 117.815 174.08L117.976 174.047L117.673 174.086L117.632 174.118L117.636 174.141C117.835 174.1 118.214 173.926 118.773 173.619L119.006 173.475C118.805 173.58 118.698 173.642 118.686 173.661C118.716 173.654 118.767 173.628 118.837 173.582L118.86 173.577C118.997 173.469 119.134 173.361 119.272 173.253C119.421 173.126 119.561 172.993 119.692 172.854C119.838 172.713 119.978 172.58 120.112 172.456C120.073 172.497 120.027 172.546 119.975 172.604C119.939 172.66 119.913 172.689 119.898 172.692L119.921 172.688C119.917 172.672 119.936 172.645 119.975 172.604C120.112 172.496 120.281 172.27 120.481 171.925L120.845 171.371L121.004 171.099L120.85 171.394C120.883 171.324 120.898 171.281 120.895 171.265C120.907 171.247 120.919 171.229 120.931 171.21C120.956 171.173 120.966 171.147 120.963 171.132C121.087 170.883 121.241 170.468 121.424 169.888C121.418 169.857 121.413 169.834 121.41 169.819C121.422 169.8 121.426 169.783 121.423 169.768C121.435 169.75 121.44 169.733 121.437 169.717C121.449 169.699 121.461 169.681 121.473 169.662L121.424 169.888C121.45 169.707 121.637 168.798 121.985 167.163L123.008 161.925C124.374 154.638 125.491 147.307 126.359 139.932C126.44 139.245 126.719 138.701 127.194 138.299C127.52 138.024 127.89 137.844 128.303 137.759C129.221 137.569 129.986 137.834 130.597 138.553C130.872 138.879 131.049 139.233 131.128 139.616C131.172 139.83 131.188 140.058 131.174 140.3C130.205 148.734 128.888 157.104 127.223 165.41C126.663 168.334 126.25 170.35 125.985 171.458C125.448 173.34 124.477 174.968 123.07 176.344C121.721 177.692 120.129 178.556 118.293 178.936ZM115.104 149.391C114.43 149.53 113.814 149.403 113.253 149.008C112.708 148.61 112.36 148.044 112.208 147.309C111.813 145.397 111.914 143.764 112.512 142.412C113.767 139.839 116.261 138.167 119.995 137.395L121.532 137.077C123.858 136.596 126.714 136.053 130.099 135.449C132.199 135.11 134.366 134.71 136.6 134.248C138.161 133.926 139.717 133.58 141.268 133.211C141.941 133.072 142.543 133.203 143.072 133.604C143.599 133.99 143.944 134.501 144.107 135.137C144.246 135.81 144.123 136.41 143.737 136.937C143.352 137.463 142.841 137.808 142.204 137.972C140.956 138.262 139.697 138.538 138.427 138.801C137.294 139.035 134.707 139.522 130.663 140.262C128.365 140.642 126.067 141.069 123.772 141.544C121.661 141.98 120.117 142.347 119.141 142.645L119.027 142.669L119.476 142.528L119.362 142.551C119.349 142.57 119.232 142.618 119.009 142.696C118.602 142.892 118.208 143.109 117.827 143.347L117.763 143.385L117.786 143.38C117.783 143.365 117.816 143.334 117.886 143.287C117.969 143.222 118.025 143.187 118.056 143.18C118.028 143.202 117.981 143.244 117.914 143.306C117.844 143.352 117.746 143.42 117.621 143.51C117.511 143.596 117.397 143.7 117.278 143.82L117.1 144C117.097 143.985 117.155 143.917 117.274 143.797L117.392 143.677C117.377 143.68 117.357 143.7 117.333 143.737C117.321 143.755 117.301 143.775 117.274 143.797C117.261 143.815 117.249 143.834 117.237 143.852C117.24 143.868 117.222 143.895 117.183 143.935C117.143 143.975 117.111 144.014 117.087 144.051C117.078 144.085 117.067 144.111 117.055 144.129C117.043 144.148 117.031 144.166 117.019 144.185C117.003 144.188 116.967 144.243 116.909 144.351L116.946 144.295C116.955 144.262 116.971 144.226 116.996 144.189C117.032 144.134 117.055 144.089 117.064 144.056C117.085 144.003 117.102 143.968 117.114 143.95L117.087 144.051C117.002 144.18 116.932 144.346 116.879 144.549C116.888 144.595 116.87 144.662 116.825 144.751C116.815 144.705 116.832 144.63 116.874 144.526L116.909 144.351L116.919 144.397C116.925 144.427 116.921 144.484 116.906 144.567L116.822 145.087C116.835 145.148 116.835 145.228 116.824 145.326C116.812 145.424 116.811 145.496 116.821 145.542L116.795 145.188C116.811 145.265 116.816 145.367 116.811 145.496C116.818 145.606 116.883 145.96 117.007 146.557C117.13 147.233 117 147.834 116.614 148.361C116.243 148.884 115.74 149.228 115.104 149.391ZM158.387 170.861C157.193 171.108 156.04 171.051 154.929 170.69C153.832 170.327 152.89 169.628 152.102 168.594C151.329 167.557 150.775 166.38 150.438 165.061C149.872 162.322 149.724 158.675 149.995 154.12L149.998 153.903L154.719 154.746C153.663 159.592 151.897 164.169 149.422 168.478C147.828 171.265 145.891 172.934 143.612 173.485C142.418 173.732 141.267 173.683 140.159 173.337C139.063 172.974 138.093 172.297 137.25 171.306C136.311 170.16 135.642 168.815 135.242 167.27C134.584 164.087 134.79 160.837 135.859 157.521C136.198 156.382 136.688 155.315 137.328 154.321C138.608 152.333 140.363 151.061 142.594 150.504C143.68 150.28 144.679 150.209 145.589 150.292C147.589 150.548 149.321 151.363 150.786 152.735C151.88 153.785 152.626 155.115 153.022 156.724C153.196 157.566 153.301 158.263 153.335 158.814C153.333 159.5 153.075 160.064 152.56 160.506C152.234 160.781 151.866 160.968 151.456 161.069C150.476 161.272 149.71 161.039 149.157 160.372C148.858 160.003 148.656 159.566 148.551 159.061C148.52 158.908 148.494 158.666 148.473 158.335L148.483 158.501L148.411 158.037C148.351 157.746 148.275 157.491 148.181 157.271L148.316 157.578L147.805 156.607C147.786 156.595 147.766 156.575 147.744 156.547C147.72 156.505 147.704 156.468 147.698 156.437L147.879 156.735C147.789 156.61 147.737 156.549 147.721 156.552C147.718 156.537 147.664 156.468 147.559 156.346C147.356 156.133 147.195 155.975 147.078 155.871C147.152 155.92 147.211 155.972 147.254 156.027C147.309 156.063 147.346 156.087 147.365 156.099C147.38 156.096 147.389 156.102 147.392 156.118C147.389 156.102 147.38 156.096 147.365 156.099C147.365 156.099 147.331 156.09 147.263 156.072C147.208 156.036 147.149 155.984 147.088 155.917L146.132 155.349C146.181 155.355 146.241 155.374 146.312 155.408C146.383 155.441 146.444 155.468 146.496 155.489L146.193 155.408C145.91 155.275 145.566 155.155 145.161 155.047L145.138 155.052C145.147 155.098 145.192 155.121 145.271 155.12C145.348 155.104 145.388 155.104 145.391 155.119C145.274 155.096 145.024 155.083 144.641 155.083C144.592 155.077 144.53 155.082 144.453 155.098C144.392 155.11 144.32 155.109 144.237 155.095C144.399 155.109 144.511 155.11 144.573 155.097C144.618 155.088 144.64 155.075 144.637 155.06C144.618 155.048 144.532 155.057 144.379 155.089L143.328 155.33L143.324 155.307L143.484 155.274C143.319 155.324 142.957 155.503 142.398 155.81L142.444 155.8C142.212 155.912 141.976 156.121 141.736 156.426C141.712 156.462 141.677 156.486 141.631 156.495L141.654 156.49C141.647 156.46 141.672 156.423 141.726 156.38C141.778 156.321 141.824 156.272 141.863 156.232L141.772 156.37C141.608 156.5 141.356 156.903 141.017 157.579C141.002 157.583 140.996 157.592 140.999 157.607C140.966 157.757 140.919 157.839 140.858 157.852C140.962 157.814 141.013 157.716 141.012 157.556C140.517 158.712 140.178 159.811 139.995 160.854C139.993 160.998 139.974 161.138 139.938 161.273L140.014 160.946C140.011 160.931 140.002 160.925 139.986 160.928C139.882 161.348 139.796 162.092 139.73 163.159C139.674 164.048 139.67 164.607 139.718 164.837C139.733 164.913 139.732 164.985 139.714 165.053C139.695 164.961 139.69 164.898 139.699 164.864C139.712 165.005 139.778 165.359 139.895 165.925C139.974 166.307 140.02 166.529 140.032 166.59C140.06 166.648 140.244 167.033 140.582 167.745C140.659 167.809 140.723 167.884 140.772 167.969L140.744 167.951C140.713 167.878 140.652 167.811 140.559 167.75L140.554 167.727L141.203 168.431C141.258 168.467 141.298 168.507 141.323 168.549C141.304 168.537 141.278 168.527 141.245 168.518C141.226 168.506 141.158 168.448 141.041 168.344L141.683 168.786C141.652 168.792 141.611 168.785 141.559 168.764C141.506 168.743 141.459 168.705 141.415 168.65C141.431 168.647 141.465 168.656 141.517 168.677C141.569 168.698 141.614 168.721 141.651 168.745C141.7 168.751 141.741 168.758 141.775 168.767C141.824 168.773 141.874 168.786 141.927 168.807C141.991 168.81 142.051 168.83 142.106 168.866C142.088 168.854 142.046 168.846 141.982 168.844C141.93 168.823 141.888 168.815 141.858 168.822C141.824 168.813 141.806 168.801 141.802 168.785C141.824 168.813 141.913 168.818 142.069 168.802C142.225 168.786 142.36 168.782 142.474 168.79L142.221 168.842L142.9 168.654L142.593 168.789C142.59 168.774 142.611 168.762 142.657 168.752C142.718 168.739 142.784 168.71 142.854 168.664C143.175 168.517 143.354 168.417 143.39 168.361C143.427 168.306 143.458 168.267 143.486 168.246L143.244 168.463C143.792 168.031 144.134 167.713 144.267 167.51L144.363 167.394L144.368 167.417C144.337 167.424 144.304 167.454 144.267 167.51C144.246 167.562 144.22 167.591 144.19 167.598C144.251 167.585 144.377 167.423 144.568 167.113C145.221 166.18 145.998 164.767 146.898 162.873L147.053 162.578L146.926 162.891L146.948 162.767C147.079 162.549 147.275 162.109 147.537 161.449C148.618 158.88 149.475 156.158 150.109 153.282C150.321 152.456 150.897 151.923 151.836 151.681C152.846 151.472 153.66 151.742 154.277 152.492C154.509 152.763 154.667 153.066 154.752 153.399C154.806 153.659 154.834 153.949 154.836 154.267C154.668 156.775 154.651 159.276 154.784 161.769L154.847 162.307L154.78 161.985C154.841 162.435 154.897 162.783 154.948 163.028C155.179 164.145 155.331 164.727 155.405 164.776C155.384 164.749 155.349 164.66 155.302 164.51C155.342 164.55 155.369 164.6 155.381 164.661C155.416 164.83 155.553 165.104 155.791 165.486C155.829 165.59 155.875 165.66 155.931 165.696L155.908 165.701L155.87 165.637C155.79 165.558 155.749 165.511 155.745 165.495C155.739 165.465 155.727 165.443 155.708 165.431C155.724 165.428 155.742 165.44 155.764 165.468C156.116 165.858 156.325 166.062 156.393 166.08C156.408 166.076 156.414 166.067 156.411 166.052C156.386 166.009 156.279 165.952 156.088 165.879C156.14 165.9 156.323 166.014 156.637 166.22C156.6 166.196 156.548 166.175 156.481 166.157C156.428 166.136 156.375 166.107 156.319 166.071L156.314 166.048L156.853 166.224C156.838 166.227 156.781 166.223 156.683 166.211C156.6 166.196 156.54 166.177 156.504 166.152L156.526 166.148C156.6 166.196 156.698 166.208 156.821 166.182C156.855 166.191 156.904 166.197 156.968 166.2C157.048 166.199 157.118 166.193 157.179 166.18C157.225 166.171 157.247 166.158 157.244 166.143L157.124 166.144L156.807 166.233L156.872 166.196C156.963 166.177 157.058 166.173 157.156 166.185C157.413 166.116 157.571 166.067 157.629 166.039L157.299 166.179C157.314 166.176 157.349 166.153 157.404 166.11C157.459 166.066 157.538 166.026 157.642 165.989C157.746 165.951 157.855 165.897 157.968 165.826C157.98 165.807 157.994 165.796 158.009 165.793C158.036 165.772 158.065 165.758 158.096 165.751C158.123 165.73 158.143 165.71 158.155 165.691L157.968 165.826C158.227 165.613 158.428 165.427 158.571 165.27L158.754 165.113C158.738 165.116 158.725 165.127 158.713 165.145C158.7 165.164 158.682 165.191 158.658 165.228C158.634 165.265 158.615 165.293 158.603 165.311C158.588 165.315 158.573 165.318 158.557 165.321L158.63 165.21C158.973 164.708 159.237 164.247 159.421 163.826L159.285 164.093C159.357 163.903 159.436 163.743 159.521 163.614C159.925 162.637 160.298 161.355 160.64 159.768C160.652 159.67 160.673 159.578 160.703 159.492L160.636 159.865C160.764 158.785 160.828 157.975 160.827 157.432C160.863 156.755 161.123 156.198 161.607 155.763C161.93 155.473 162.297 155.278 162.707 155.177C163.64 154.984 164.406 155.216 165.005 155.874C165.28 156.2 165.473 156.559 165.586 156.951C165.631 157.165 165.66 157.382 165.673 157.603C165.624 160.373 165.039 163.023 163.919 165.553C163.421 166.772 162.731 167.872 161.849 168.853C160.859 169.855 159.705 170.524 158.387 170.861ZM171.545 167.829L170.921 167.934C168.943 168.168 167.074 167.772 165.314 166.748C163.158 165.502 161.835 163.694 161.345 161.322C161.139 160.328 161.111 159.304 161.26 158.252C161.36 157.577 161.646 157.032 162.118 156.615C162.417 156.362 162.773 156.192 163.186 156.107C164.119 155.914 164.89 156.169 165.498 156.873C165.792 157.211 165.98 157.579 166.062 157.977C166.103 158.176 166.115 158.389 166.098 158.616C166.057 158.959 166.04 159.298 166.045 159.632L166.041 159.729L166.047 159.991L166.067 160.202L166.186 160.776C166.202 160.852 166.22 160.904 166.242 160.932L166.261 161.024L166.139 160.666L166.242 160.932C166.304 161.078 166.372 161.216 166.447 161.344C166.49 161.399 166.54 161.484 166.596 161.601L166.623 161.619C166.626 161.634 166.62 161.643 166.605 161.646L166.596 161.601C166.54 161.564 166.503 161.5 166.484 161.408L166.419 161.326C166.444 161.448 166.522 161.552 166.651 161.637C166.704 161.738 166.818 161.866 166.994 162.021L167.146 162.181L167.114 162.14C167.08 162.131 167.026 162.102 166.952 162.053C166.894 162.002 166.861 161.96 166.855 161.93L167.081 162.098C167.331 162.302 167.593 162.487 167.867 162.654C167.882 162.651 167.9 162.663 167.922 162.69C167.959 162.715 167.997 162.747 168.037 162.786C168.09 162.807 168.131 162.815 168.162 162.808C167.95 162.709 167.834 162.653 167.816 162.641C167.813 162.625 167.803 162.619 167.788 162.622L168.318 162.872L168.89 163.089C169.003 163.097 169.121 163.129 169.244 163.183C169.241 163.168 169.215 163.157 169.166 163.151L168.917 163.107C168.973 163.143 169.183 163.156 169.547 163.144C169.786 163.143 170.004 163.153 170.2 163.177L170.104 163.173L169.851 163.225C169.848 163.21 169.854 163.2 169.87 163.197L169.989 163.196L171.132 162.936L170.82 163.049L170.889 163.034L171.127 162.913C171.366 162.832 171.598 162.72 171.824 162.578L171.718 162.647L171.883 162.518C172.02 162.409 172.162 162.284 172.308 162.143L172.473 162.013C172.457 162.016 172.438 162.036 172.413 162.073C172.401 162.091 172.375 162.121 172.336 162.161C172.308 162.182 172.282 162.212 172.258 162.249C172.246 162.267 172.232 162.278 172.217 162.281L172.422 161.999C172.605 161.802 172.708 161.645 172.732 161.528L172.823 161.39L172.673 161.708L172.926 161.081C172.932 161.032 172.939 160.991 172.948 160.957C172.97 160.905 172.983 160.854 172.989 160.805C173.01 160.753 173.027 160.718 173.039 160.699C173.045 160.73 173.036 160.763 173.012 160.8C173.003 160.834 172.992 160.86 172.98 160.879C172.983 160.894 172.971 160.952 172.945 161.054C173.023 160.814 173.05 160.561 173.027 160.295C173.026 160.215 173.035 160.141 173.053 160.074L173.039 160.005L173.062 160L173.048 160.051L173.091 160.257L173.087 160.354L173.064 160.359C173.045 160.267 173.04 160.204 173.049 160.17L172.964 159.757L172.884 159.487L172.949 159.569C172.974 159.691 172.996 159.759 173.014 159.771L173.019 159.794C172.988 159.8 172.96 159.742 172.935 159.62C172.914 159.592 172.898 159.555 172.888 159.51L172.586 158.974L172.521 158.891L172.526 158.914C172.532 158.945 172.6 159.043 172.73 159.207L172.623 159.038C172.256 158.571 171.628 157.927 170.74 157.106C168.978 155.683 167.867 154.054 167.408 152.218C167.192 151.098 167.219 149.992 167.487 148.899C168.044 146.885 169.217 145.342 171.006 144.27C171.717 143.852 172.471 143.561 173.266 143.396C173.741 143.298 174.439 143.241 175.361 143.226C176.284 143.211 177.286 143.546 178.369 144.232C179.449 144.902 180.182 145.939 180.568 147.343C180.711 148.032 180.589 148.639 180.203 149.166C179.814 149.677 179.302 150.014 178.665 150.178C177.992 150.317 177.392 150.194 176.866 149.808C176.339 149.422 175.993 148.903 175.826 148.252L175.802 148.137C175.818 148.134 175.828 148.148 175.835 148.178C175.838 148.194 175.844 148.224 175.854 148.27C175.875 148.297 175.897 148.325 175.919 148.352L175.938 148.444L175.919 148.472L175.887 148.431C175.865 148.403 175.853 148.382 175.85 148.367C175.847 148.351 175.819 148.293 175.766 148.192C175.889 148.327 175.953 148.401 175.956 148.416C175.959 148.432 175.97 148.445 175.988 148.458L175.965 148.462L175.697 148.207L175.688 148.161L175.942 148.348L175.951 148.394C175.936 148.397 175.9 148.38 175.845 148.344L175.563 148.139C175.579 148.135 175.596 148.14 175.614 148.152C175.632 148.164 175.669 148.189 175.725 148.225C175.795 148.258 175.849 148.287 175.886 148.311L175.803 148.257L175.651 148.216C175.51 148.15 175.372 148.099 175.236 148.063L175.057 148.004L175.103 147.995C175.204 148.021 175.272 148.039 175.305 148.048C175.354 148.054 175.388 148.063 175.407 148.075C175.422 148.072 175.431 148.078 175.434 148.094L175.407 148.075L174.965 148.023C174.781 148.061 174.662 148.062 174.607 148.025C174.744 147.997 174.847 147.992 174.914 148.01C174.807 148.032 174.729 148.04 174.68 148.034L173.859 148.228C174.073 148.184 174.186 148.152 174.198 148.134L173.904 148.218C173.755 148.265 173.611 148.343 173.474 148.451C173.337 148.559 173.222 148.623 173.13 148.642L173.423 148.438L173.24 148.595C173.097 148.673 172.967 148.779 172.852 148.915C172.751 148.967 172.676 149.031 172.628 149.105C172.658 149.098 172.7 149.066 172.751 149.007C172.815 148.93 172.845 148.884 172.842 148.869C172.831 148.967 172.744 149.089 172.583 149.234C172.479 149.351 172.412 149.452 172.382 149.538C172.349 149.609 172.314 149.672 172.278 149.727C172.272 149.697 172.305 149.626 172.378 149.515L172.405 149.414L172.409 149.437C172.4 149.471 172.385 149.514 172.364 149.566C172.343 149.618 172.311 149.697 172.269 149.801C172.239 149.887 172.211 149.981 172.184 150.082C172.154 150.168 172.13 150.245 172.112 150.312L172.085 150.414L172.151 150.041C172.161 150.087 172.161 150.127 172.152 150.16C172.143 150.194 172.134 150.228 172.125 150.262L172.078 150.846C172.091 150.907 172.094 150.962 172.089 151.011C172.098 151.057 172.095 151.082 172.08 151.085L172.073 150.703L172.087 150.772C172.078 150.806 172.102 150.96 172.159 151.236L172.221 151.534L172.198 151.539L172.165 151.378L172.123 151.291C172.119 151.276 172.126 151.267 172.141 151.264C172.181 151.383 172.205 151.458 172.211 151.488C172.23 151.5 172.251 151.528 172.276 151.571C172.345 151.748 172.402 151.872 172.449 151.942C172.495 152.012 172.52 152.055 172.523 152.07C172.505 152.058 172.484 152.038 172.463 152.011C172.453 151.965 172.438 151.928 172.416 151.901C172.391 151.858 172.376 151.821 172.369 151.791L172.342 151.772L172.481 151.983C173.059 152.693 173.705 153.349 174.42 153.952C174.891 154.381 175.351 154.828 175.798 155.294C176.801 156.363 177.443 157.578 177.725 158.94C177.82 159.399 177.87 159.876 177.877 160.369C177.84 162.275 177.186 163.934 175.914 165.346C174.7 166.65 173.244 167.478 171.545 167.829ZM174.623 167.551C172.925 167.903 171.21 168.058 169.478 168.017C168.797 167.966 168.253 167.688 167.845 167.182C167.567 166.84 167.384 166.456 167.295 166.027C167.106 165.109 167.366 164.361 168.076 163.783C168.421 163.521 168.792 163.348 169.19 163.266C169.404 163.222 169.623 163.2 169.847 163.202C170.564 163.197 170.968 163.185 171.06 163.167C170.999 163.179 170.945 163.19 170.899 163.2C170.85 163.194 170.795 163.197 170.734 163.21C170.685 163.204 170.645 163.204 170.614 163.211C170.581 163.202 170.571 163.196 170.587 163.193L170.752 163.182C171.76 163.118 172.792 162.976 173.847 162.758C174.582 162.606 175.318 162.422 176.055 162.206C176.067 162.187 176.096 162.173 176.142 162.164C176.188 162.154 176.224 162.139 176.252 162.117L176.344 162.098L176.298 162.107C176.27 162.129 176.22 162.155 176.146 162.187C176.07 162.202 175.993 162.218 175.917 162.234C175.902 162.237 175.902 162.237 175.917 162.234L176.142 162.164C177.64 161.615 178.721 161.096 179.386 160.607L179.619 160.463L179.601 160.491C179.574 160.513 179.546 160.534 179.519 160.556C179.488 160.562 179.459 160.576 179.432 160.598C179.404 160.619 179.377 160.641 179.35 160.663C179.319 160.669 179.305 160.68 179.308 160.695C179.305 160.68 179.333 160.658 179.391 160.63C179.446 160.587 179.494 160.553 179.537 160.528C179.577 160.488 179.626 160.454 179.684 160.426C180.251 160.006 180.851 159.475 181.484 158.833C181.515 158.827 181.561 158.777 181.621 158.685L181.484 158.833C181.545 158.741 181.591 158.691 181.621 158.685L181.831 158.426C182.256 157.86 182.533 157.46 182.66 157.226L182.778 156.986C182.85 156.796 182.932 156.651 183.023 156.552L182.837 156.926C182.852 156.923 182.88 156.861 182.919 156.742C182.973 156.698 183.04 156.557 183.118 156.317C183.453 155.546 183.713 154.758 183.898 153.954L183.925 153.853L184.087 152.671C184.172 151.999 184.45 151.455 184.922 151.038C185.252 150.778 185.615 150.608 186.013 150.525C186.946 150.332 187.717 150.588 188.326 151.292C188.6 151.618 188.777 151.972 188.856 152.355C188.901 152.569 188.916 152.797 188.902 153.039C188.621 156.001 187.612 158.683 185.875 161.084C183.285 164.38 179.535 166.536 174.623 167.551ZM205.601 160.763C204.194 161.054 202.851 161.005 201.574 160.615C200.293 160.209 199.161 159.518 198.177 158.541C197.171 157.456 196.441 156.203 195.988 154.781C195.829 154.399 195.71 154.017 195.631 153.634C195.356 152.303 195.596 150.841 196.352 149.249L196.546 148.802C197.12 147.487 197.711 146.176 198.318 144.87C199.092 143.21 199.838 141.532 200.556 139.836C200.97 138.984 201.552 138.481 202.302 138.326C202.7 138.244 203.151 138.262 203.654 138.381C204.499 138.685 205.016 139.296 205.206 140.214C205.291 140.628 205.259 141.049 205.108 141.479C204.9 142.017 204.675 142.55 204.434 143.079C203.186 145.842 201.812 148.535 200.312 151.159C198.956 153.625 197.51 156.046 195.975 158.422C194.376 160.954 193.162 162.45 192.331 162.909C191.757 163.219 191.141 163.442 190.483 163.578L190.019 163.65C188.482 163.776 187.164 163.307 186.066 162.242C185.357 161.511 184.887 160.666 184.657 159.709C184.436 158.638 184.307 157.667 184.27 156.797C183.941 152.35 183.955 147.903 184.312 143.458C184.615 139.055 185.346 134.724 186.508 130.463C187.2 128.022 188.094 126.058 189.191 124.571C190.346 123.135 191.696 122.258 193.241 121.938C194.144 121.752 195.101 121.785 196.11 122.039C197.348 122.39 198.353 123.083 199.125 124.12C199.722 124.922 200.117 125.79 200.31 126.723C200.652 128.376 200.451 130.803 199.709 134.003C198.062 140.854 194.337 146.953 188.534 152.302C188.208 152.576 187.862 152.752 187.494 152.828C186.592 153.014 185.804 152.754 185.131 152.048C184.838 151.71 184.653 151.357 184.577 150.99C184.394 150.102 184.661 149.313 185.38 148.622C185.983 148.066 186.568 147.499 187.134 146.919L187.586 146.442C187.61 146.406 187.656 146.356 187.723 146.294C187.787 146.217 187.843 146.142 187.892 146.068L187.682 146.327C187.822 146.154 187.957 145.999 188.088 145.86C188.219 145.721 188.334 145.586 188.435 145.453C189.934 143.755 191.29 141.784 192.501 139.539C192.564 139.382 192.632 139.248 192.705 139.137L192.732 139.036L192.605 139.35L192.86 138.842C193.831 136.902 194.574 134.826 195.09 132.613C195.128 132.414 195.176 132.22 195.233 132.033C195.218 132.036 195.207 132.062 195.201 132.111C195.196 132.16 195.19 132.21 195.184 132.259C195.175 132.292 195.166 132.326 195.157 132.36C195.16 132.375 195.154 132.384 195.139 132.388L195.201 132.111C195.216 131.949 195.262 131.708 195.339 131.389C195.499 130.542 195.608 129.682 195.667 128.808C195.644 128.542 195.644 128.27 195.666 127.994L195.685 128.086L195.687 128.325L195.648 128.022L195.577 127.678C195.545 127.525 195.519 127.435 195.497 127.407L195.484 127.458C195.493 127.504 195.534 127.583 195.605 127.696L195.287 126.972L195.417 127.137L195.422 127.159C195.391 127.166 195.302 127.081 195.154 126.904C195.086 126.806 195.036 126.761 195.006 126.767C195.031 126.889 195.117 126.959 195.265 126.977L194.794 126.667C194.963 126.792 195.071 126.849 195.117 126.84L195.112 126.817C195.093 126.805 195.05 126.79 194.983 126.772C194.931 126.751 194.854 126.727 194.753 126.7C194.651 126.673 194.556 126.637 194.467 126.591L194.817 126.662L194.55 126.646C194.531 126.634 194.492 126.634 194.43 126.647C194.381 126.641 194.332 126.635 194.283 126.629L194.375 126.61C194.409 126.619 194.502 126.608 194.655 126.576L193.898 126.733C193.977 126.732 194.063 126.722 194.155 126.703L194.196 126.671C194.193 126.656 194.176 126.651 194.145 126.658L193.495 126.984L193.77 126.807C193.44 127.067 193.27 127.206 193.257 127.224C193.245 127.243 193.18 127.312 193.061 127.432C193.134 127.321 193.198 127.244 193.253 127.201L193.276 127.196L193.271 127.173L193.175 127.289L193.18 127.312C192.928 127.635 192.695 127.979 192.483 128.342L192.324 128.614L192.479 128.319L192.465 128.369C192.392 128.48 192.359 128.551 192.365 128.581L192.347 128.609C192.244 128.806 192.151 129.009 192.066 129.218C191.517 130.576 191.077 131.919 190.746 133.248C190.647 133.62 190.568 133.971 190.509 134.302L190.441 134.556L190.504 134.279C190.463 134.543 190.406 134.81 190.335 135.08L190.251 135.6C189.519 139.549 189.072 143.519 188.908 147.509C188.822 149.952 188.843 152.485 188.971 155.107L188.981 155.273L188.947 154.992L189.019 156.15C189.07 156.938 189.187 157.775 189.371 158.662L189.315 158.506L189.277 158.323C189.296 158.415 189.312 158.491 189.324 158.552C189.349 158.595 189.386 158.659 189.436 158.745C189.497 158.812 189.544 158.882 189.575 158.955C189.463 158.723 189.392 158.61 189.361 158.616L189.413 158.749C189.524 158.822 189.596 158.903 189.63 158.992C189.634 159.007 189.628 159.016 189.612 159.019L189.344 158.764C189.39 158.754 189.468 158.786 189.579 158.859L189.727 158.996C189.696 159.002 189.652 158.979 189.593 158.927C189.535 158.876 189.472 158.841 189.404 158.823C189.456 158.844 189.518 158.871 189.588 158.905C189.674 158.935 189.725 158.948 189.74 158.945C189.756 158.942 189.765 158.948 189.768 158.963L189.414 158.869L189.459 158.859L189.584 158.882L189.538 158.891C189.519 158.879 189.487 158.878 189.441 158.887C189.392 158.881 189.351 158.874 189.317 158.865C189.271 158.874 189.242 158.888 189.23 158.907L189.689 158.812C189.665 158.849 189.607 158.877 189.515 158.896L189.446 158.91L189.441 158.887L189.487 158.878C189.673 158.775 189.858 158.705 190.042 158.667L190.083 158.635L190.088 158.658L189.621 158.946C189.618 158.93 189.624 158.921 189.639 158.918C189.667 158.896 189.694 158.875 189.721 158.853C189.749 158.831 189.769 158.811 189.781 158.793C189.808 158.771 189.875 158.71 189.982 158.608C189.958 158.645 189.914 158.702 189.85 158.779C189.783 158.84 189.729 158.891 189.69 158.931C189.666 158.968 189.646 158.988 189.63 158.992C189.643 158.973 189.662 158.953 189.69 158.931C189.717 158.91 189.755 158.862 189.804 158.788C191.062 157.156 192.282 155.34 193.464 153.34C194.916 150.95 196.446 148.24 198.054 145.211L198.231 144.912L198.258 144.81C198.261 144.826 198.199 144.95 198.072 145.184C198.12 145.11 198.195 144.967 198.294 144.755C199.274 142.781 200.028 141.141 200.556 139.836L205.108 141.479C204.405 143.172 203.665 144.841 202.888 146.485C201.399 149.697 200.549 151.644 200.338 152.326C200.342 152.341 200.334 152.383 200.316 152.45C200.31 152.499 200.294 152.535 200.266 152.556C200.293 152.375 200.312 152.276 200.324 152.257L200.312 152.547L200.289 152.432C200.311 152.539 200.35 152.651 200.406 152.767C200.422 152.843 200.425 152.898 200.416 152.932L200.336 152.661L200.593 153.326C200.855 153.974 201.102 154.474 201.334 154.825L201.13 154.532L201.269 154.742C201.423 154.95 201.59 155.139 201.769 155.309C201.775 155.34 201.808 155.381 201.866 155.432L201.954 155.51L201.658 155.236L201.774 155.332C201.857 155.426 202.036 155.557 202.31 155.724C202.42 155.797 202.494 155.845 202.531 155.869C202.565 155.878 202.583 155.891 202.586 155.906L202.582 155.883L202.526 155.846C202.477 155.841 202.427 155.827 202.374 155.806C202.334 155.766 202.29 155.744 202.241 155.738C202.204 155.714 202.184 155.694 202.181 155.679L202.337 155.742C202.675 155.911 202.95 156.006 203.162 156.026L203.369 156.103C203.354 156.106 203.331 156.111 203.3 156.117C203.282 156.105 203.256 156.095 203.222 156.086C203.204 156.073 203.144 156.054 203.042 156.027L203.337 156.062C203.585 156.106 203.829 156.128 204.068 156.126C204.129 156.113 204.209 156.113 204.307 156.124C204.292 156.128 204.282 156.122 204.279 156.106C204.157 156.132 204.071 156.141 204.022 156.136L204.578 156.045C204.639 156.032 204.699 156.012 204.757 155.984C204.815 155.956 204.867 155.937 204.912 155.927L205.055 155.922C205.009 155.931 204.972 155.947 204.945 155.969L204.766 156.03L204.94 155.946C205.047 155.924 205.25 155.826 205.55 155.652C205.604 155.609 205.653 155.575 205.696 155.55C205.754 155.522 205.789 155.499 205.801 155.48L205.778 155.485C205.718 155.577 205.664 155.628 205.618 155.638L205.531 155.68C205.547 155.677 205.56 155.666 205.573 155.647C205.585 155.629 205.606 155.617 205.637 155.61C205.722 155.561 205.777 155.517 205.801 155.48C206.231 155.168 206.629 154.815 206.994 154.42L207.099 154.35L207.022 154.438C206.967 154.482 206.921 154.531 206.885 154.586L206.862 154.591L207.186 154.189C207.502 153.789 207.781 153.364 208.023 152.915L208.178 152.62L208.005 152.943L208.105 152.73C208.165 152.638 208.27 152.409 208.417 152.044C208.933 150.677 209.397 148.985 209.809 146.969C210.055 146.152 210.645 145.648 211.578 145.455C212.435 145.277 213.141 145.45 213.696 145.974C214.097 146.37 214.347 146.805 214.445 147.279C214.533 147.708 214.506 148.152 214.361 148.613L214.197 149.437C214.03 150.173 213.854 150.904 213.669 151.628C212.821 154.707 211.415 157.088 209.449 158.771C208.313 159.756 207.03 160.42 205.601 160.763ZM221.778 157.394C218.886 157.992 216.351 157.463 214.174 155.808C212.717 154.705 211.654 153.305 210.984 151.609C210.604 150.618 210.308 149.61 210.096 148.585C209.713 146.734 209.585 144.072 209.713 140.599C209.903 135.502 210.681 130.427 212.045 125.374C212.925 122.144 214.114 119.752 215.612 118.198C216.546 117.239 217.664 116.625 218.964 116.356C220.999 115.935 222.771 116.518 224.28 118.105C225.215 119.077 225.811 120.182 226.067 121.421C226.083 121.498 226.148 121.891 226.263 122.601C226.39 123.293 226.336 124.342 226.1 125.747C225.86 127.136 225.55 128.453 225.169 129.696C223.095 136.332 219.388 141.861 214.048 146.284C213.694 146.581 213.326 146.769 212.943 146.848C212.087 147.025 211.328 146.751 210.667 146.026C210.38 145.718 210.197 145.373 210.118 144.991C209.925 144.057 210.188 143.285 210.908 142.673C211.462 142.192 212.008 141.704 212.544 141.21C213.463 140.334 213.99 139.794 214.124 139.591C214.139 139.588 214.16 139.576 214.188 139.554C214.212 139.517 214.244 139.479 214.283 139.438L214.279 139.415L214.183 139.531L214.069 139.674L214.553 139.119C216.076 137.305 217.333 135.473 218.323 133.625L218.636 133.058C218.554 133.202 218.507 133.284 218.495 133.302C218.483 133.321 218.479 133.338 218.482 133.353L218.618 133.085C219.628 130.946 220.396 128.873 220.922 126.865L221.227 125.677C221.19 125.733 221.178 125.791 221.191 125.852L221.146 125.981L221.217 125.631C221.348 124.95 221.417 124.282 221.425 123.626L221.444 123.023L221.437 123.336C221.417 123.085 221.405 122.952 221.402 122.936C221.411 122.903 221.409 122.855 221.396 122.794C221.371 122.672 221.349 122.564 221.33 122.473C221.304 122.271 221.273 122.157 221.236 122.133L221.343 122.422C221.328 122.345 221.307 122.286 221.283 122.243C221.258 122.2 221.233 122.158 221.208 122.115L220.957 121.593L220.984 121.611C221.013 121.748 221.064 121.842 221.138 121.89C221.098 121.851 221.056 121.803 221.013 121.748L220.628 121.277L220.605 121.282L220.513 121.182C220.528 121.179 220.539 121.192 220.545 121.223C220.563 121.235 220.582 121.247 220.6 121.259C220.619 121.271 220.677 121.323 220.776 121.414C220.761 121.418 220.742 121.405 220.721 121.378L220.476 121.237C220.405 121.204 220.349 121.16 220.305 121.105L220.245 121.046C220.26 121.042 220.27 121.048 220.273 121.064C220.291 121.076 220.328 121.1 220.384 121.137C220.454 121.17 220.499 121.193 220.517 121.205L220.54 121.2L220.407 121.132C220.317 121.086 220.257 121.067 220.227 121.073C220.208 121.061 220.176 121.06 220.13 121.069C220.097 121.06 220.052 121.038 219.997 121.001C219.966 121.008 219.949 121.003 219.946 120.988C220.179 121.035 220.305 121.065 220.323 121.077C220.339 121.074 220.348 121.08 220.351 121.095L220.222 121.05L220.149 121.042L219.836 121.034L219.91 121.043C219.974 121.046 220.029 121.042 220.075 121.033L220.172 121.037L219.758 121.122C219.783 121.085 219.864 121.053 220.001 121.024C219.971 121.03 219.919 121.049 219.845 121.08C219.787 121.108 219.737 121.135 219.694 121.159C219.652 121.184 219.622 121.198 219.607 121.201C219.607 121.201 219.514 121.253 219.328 121.355L219.602 121.178C219.563 121.219 219.522 121.251 219.479 121.276C219.448 121.282 219.427 121.294 219.415 121.313C219.262 121.424 219.127 121.54 219.008 121.66L218.99 121.688C218.868 121.793 218.801 121.855 218.789 121.873C218.773 121.876 218.767 121.886 218.771 121.901L218.98 121.642C218.908 121.753 218.863 121.81 218.848 121.813C218.556 122.177 218.298 122.549 218.074 122.93C218.065 122.964 218.056 122.998 218.047 123.032C218.038 123.066 218.003 123.129 217.943 123.221L218.006 123.064C218.051 122.975 218.089 122.927 218.12 122.921L217.925 123.368C217.179 125.006 216.542 127.021 216.015 129.411L215.922 129.885L215.985 129.609L215.976 129.683L215.856 130.258C215.547 131.774 215.335 132.95 215.221 133.788C214.69 137.392 214.461 141.34 214.535 145.633C214.539 145.728 214.555 145.844 214.583 145.982L214.555 145.844C214.548 145.734 214.549 145.662 214.558 145.628L214.598 146.17C214.641 146.529 214.7 146.891 214.776 147.259L215.063 148.42C215.146 148.817 215.196 149.022 215.215 149.035L215.229 149.103C215.207 149.076 215.187 149.016 215.168 148.925L215.163 148.902C215.258 149.361 215.58 150.068 216.128 151.024L216.272 151.257C216.148 151.043 216.085 150.929 216.082 150.914L216.059 150.918L216.086 150.936C216.09 150.952 216.094 150.975 216.101 151.005C216.122 151.033 216.135 151.054 216.138 151.069C216.156 151.082 216.175 151.094 216.193 151.106C216.506 151.536 216.717 151.787 216.828 151.86L216.833 151.883L216.74 151.783C216.673 151.765 216.632 151.725 216.62 151.664C216.623 151.679 216.643 151.699 216.68 151.723C216.914 151.93 217.167 152.109 217.437 152.261L217.737 152.438L217.387 152.247C217.39 152.263 217.41 152.282 217.447 152.307C217.499 152.328 217.551 152.349 217.603 152.37C217.653 152.376 217.686 152.385 217.705 152.397C217.984 152.515 218.276 152.614 218.58 152.695L218.783 152.748L218.433 152.677L218.382 152.664C218.398 152.661 218.448 152.674 218.534 152.704C218.617 152.719 218.74 152.733 218.902 152.748C219.39 152.79 219.734 152.799 219.937 152.773L220.143 152.73L220.051 152.749L219.725 152.793C219.878 152.761 220.016 152.733 220.138 152.707L221.337 152.484C221.383 152.474 221.459 152.458 221.566 152.436L221.502 152.473C221.471 152.48 221.412 152.5 221.323 152.534L221.277 152.544L221.323 152.534C221.488 152.484 221.815 152.329 222.304 152.068C222.42 152.012 222.542 151.947 222.67 151.873L222.986 151.664L222.675 151.896C223.855 150.966 224.524 150.381 224.681 150.141L224.545 150.289L224.586 150.256C224.616 150.25 224.65 150.219 224.686 150.164L224.782 150.048C225.445 149.241 225.891 148.582 226.121 148.072C226.13 148.038 226.113 148.074 226.071 148.178L226.116 148.049C226.962 145.816 227.451 144.207 227.583 143.222C227.68 142.532 227.996 141.98 228.533 141.566C228.877 141.303 229.256 141.129 229.669 141.044C229.868 141.003 230.072 140.984 230.28 140.989C230.976 141.037 231.52 141.315 231.913 141.824C232.179 142.184 232.355 142.571 232.44 142.984C232.582 143.672 232.53 144.617 232.284 145.816C231.954 147.384 231.159 149.176 229.901 151.191C228.658 153.204 227.068 154.817 225.133 156.03C224.09 156.693 222.971 157.148 221.778 157.394ZM236.563 170.564C235.492 170.785 234.39 170.742 233.257 170.434C231.482 169.875 230.213 168.75 229.448 167.057C229.314 166.718 229.214 166.388 229.147 166.066C228.828 164.521 229.146 163.051 230.102 161.657C231.363 160.04 233.08 159.006 235.253 158.557C235.804 158.443 236.363 158.368 236.929 158.33L238.823 158.226C238.761 158.239 238.697 158.236 238.629 158.218L238.561 158.232L238.634 158.241L238.914 158.207C239.625 158.172 240.325 158.083 241.013 157.94L241.743 157.766L242.303 157.578C242.275 157.6 242.208 157.622 242.101 157.644L242.014 157.686L242.303 157.578C243.332 157.158 244.159 156.756 244.781 156.372C244.794 156.353 244.813 156.333 244.841 156.311C244.887 156.302 244.937 156.276 244.992 156.232C245.062 156.186 245.113 156.159 245.143 156.153L244.91 156.297C244.925 156.294 244.939 156.283 244.951 156.265C244.966 156.262 244.98 156.251 244.992 156.232C245.023 156.226 245.05 156.204 245.074 156.167C245.117 156.143 245.154 156.127 245.184 156.121C245.294 156.034 245.494 155.881 245.783 155.662C246.088 155.439 246.377 155.212 246.648 154.98C247.565 154.169 248.108 153.633 248.278 153.375L248.301 153.37L248.26 153.403C248.184 153.498 248.138 153.547 248.123 153.551C248.123 153.551 248.125 153.558 248.128 153.573L248.141 153.523C248.227 153.473 248.279 153.415 248.297 153.347C248.966 152.571 249.567 151.736 250.1 150.844C250.249 150.558 250.327 150.398 250.336 150.364C250.361 150.328 250.38 150.308 250.396 150.304L250.296 150.516L250.223 150.627L250.273 150.521C250.911 149.209 251.394 147.88 251.723 146.536L251.982 145.477C251.97 145.495 251.96 145.521 251.951 145.555C251.957 145.586 251.956 145.618 251.947 145.652C251.938 145.686 251.929 145.719 251.92 145.753C251.923 145.768 251.917 145.778 251.902 145.781L252.035 145.155C252.397 143.197 252.641 140.985 252.769 138.517C252.835 137.833 253.121 137.288 253.627 136.88C253.953 136.605 254.331 136.423 254.759 136.335C255.692 136.142 256.442 136.409 257.007 137.138C257.285 137.48 257.466 137.849 257.548 138.247C257.602 138.507 257.57 139.471 257.452 141.139C257.257 143.668 256.826 146.175 256.158 148.658C255.488 151.126 254.377 153.39 252.824 155.451C250.876 157.991 248.471 159.98 245.609 161.418C244.394 162.02 243.136 162.456 241.835 162.725C241.1 162.877 240.093 162.981 238.812 163.039L238.385 163.055C238.339 163.065 238.282 163.06 238.215 163.042C238.151 163.04 237.909 163.066 237.489 163.121C236.987 163.161 236.399 163.25 235.726 163.39L235.547 163.451L235.409 163.479C235.486 163.463 235.538 163.444 235.565 163.423L235.611 163.413C235.101 163.647 234.838 163.765 234.823 163.768C234.823 163.768 234.782 163.8 234.699 163.865L234.63 163.879L234.612 163.907L234.923 163.675L234.928 163.698L234.882 163.708C234.87 163.726 234.856 163.737 234.841 163.74C234.829 163.759 234.807 163.771 234.777 163.777C234.765 163.796 234.751 163.807 234.736 163.81C234.528 163.964 234.387 164.089 234.311 164.185L234.087 164.375L234.342 164.106C234.224 164.227 234.079 164.416 233.909 164.675C233.876 164.745 233.852 164.782 233.837 164.785L233.95 164.523C233.965 164.52 233.974 164.526 233.977 164.541L233.779 165.085L233.891 164.702L233.868 164.707L233.882 164.776C233.861 164.828 233.854 164.87 233.86 164.9L233.87 164.946L233.843 165.047L233.853 165.213L233.843 165.047C233.814 164.91 233.808 164.839 233.823 164.836L233.885 165.135C233.913 165.272 233.92 165.343 233.905 165.346L233.89 165.277C233.869 165.25 233.852 165.205 233.839 165.144C233.826 165.083 233.817 165.037 233.81 165.006L233.89 165.157C233.896 165.188 233.922 165.238 233.969 165.309L234.048 165.46C234.032 165.463 234.014 165.451 233.992 165.423C233.971 165.396 233.948 165.361 233.923 165.318C233.901 165.291 233.886 165.254 233.876 165.208L233.844 165.167L234.251 165.633L234.196 165.597C234.144 165.576 234.113 165.542 234.103 165.496L234.071 165.455L234.371 165.632L234.597 165.801L234.279 165.651C234.325 165.642 234.375 165.655 234.431 165.692C234.501 165.725 234.565 165.76 234.62 165.796C234.814 165.884 234.949 165.92 235.025 165.904C235.01 165.907 234.985 165.904 234.952 165.895C234.933 165.883 234.899 165.874 234.85 165.868C234.816 165.859 234.775 165.852 234.726 165.846C234.695 165.852 234.678 165.848 234.675 165.833C234.682 165.863 234.738 165.867 234.845 165.845L234.924 165.877L235.016 165.858C235.083 165.876 235.14 165.88 235.186 165.871C235.25 165.873 235.29 165.873 235.305 165.87C235.321 165.867 235.33 165.873 235.333 165.888L235.31 165.893C235.188 165.918 235.093 165.922 235.025 165.904L235.094 165.89C235.128 165.899 235.236 165.884 235.42 165.846L235.902 165.747L235.815 165.788L235.7 165.812C235.786 165.763 235.874 165.728 235.966 165.709C236.171 165.619 236.314 165.542 236.397 165.477C236.412 165.474 236.426 165.463 236.438 165.444C236.468 165.438 236.497 165.424 236.525 165.402C236.556 165.396 236.577 165.384 236.589 165.365L236.635 165.356C236.604 165.362 236.562 165.387 236.507 165.43C236.452 165.473 236.418 165.504 236.406 165.523L236.36 165.532L236.443 165.467C236.778 165.238 237.085 164.983 237.362 164.703L237.498 164.555L237.476 164.56L237.284 164.791C237.329 164.701 237.384 164.618 237.448 164.541C237.594 164.399 237.791 164.119 238.04 163.701L238.235 163.373L238.099 163.641C238.163 163.484 238.273 163.246 238.43 162.926C238.856 161.897 239.274 160.486 239.685 158.694L239.752 158.441L239.734 158.468C239.725 158.502 239.71 158.545 239.689 158.597C239.686 158.662 239.687 158.701 239.69 158.717L239.676 158.767L240.019 156.95C240.399 154.621 240.704 152.276 240.933 149.915C241.278 146.797 241.738 143.391 242.315 139.697C242.712 137.063 243.074 134.419 243.403 131.766L245.372 131.909C245.439 131.927 245.505 131.938 245.569 131.94C245.649 131.94 245.723 131.948 245.79 131.966C245.87 131.966 245.967 131.97 246.08 131.978C246.935 132.025 247.648 132.077 248.218 132.134L247.569 135.476C247.099 138.062 246.534 140.62 245.877 143.149C244.558 148.193 242.141 151.588 238.625 153.336C237.956 153.65 237.285 153.877 236.612 154.016C235.097 154.329 233.57 154.198 232.031 153.623C230.157 152.894 228.896 151.694 228.248 150.025C228.02 149.386 227.839 148.746 227.707 148.103C227.33 146.282 227.289 143.961 227.583 141.14C227.776 139.217 227.985 137.834 228.209 136.99C228.407 135.864 228.688 134.753 229.051 133.656C229.374 132.824 229.956 132.321 230.797 132.147C231.226 132.058 231.676 132.077 232.149 132.202C232.994 132.506 233.508 133.102 233.691 133.989C233.78 134.418 233.751 134.855 233.603 135.3C233.453 135.73 233.321 136.172 233.208 136.626L233.011 137.529C233.023 137.51 233.034 137.444 233.042 137.331C233.063 137.199 233.081 137.131 233.096 137.128L233.024 137.358L232.949 137.805C232.539 139.916 232.307 142.03 232.25 144.148C232.23 144.822 232.239 145.331 232.278 145.674C232.269 145.708 232.269 145.747 232.279 145.793C232.285 145.824 232.286 145.864 232.28 145.913C232.264 145.836 232.254 145.79 232.251 145.775C232.26 145.741 232.258 145.654 232.245 145.513L232.254 145.559C232.298 146.156 232.371 146.74 232.473 147.309C232.53 147.584 232.593 147.851 232.662 148.108L232.708 148.218L232.681 148.199L232.662 148.108C232.64 148.08 232.613 147.99 232.582 147.837L232.647 148.039L232.941 148.648L232.839 148.502C232.756 148.407 232.708 148.329 232.695 148.268C232.93 148.555 233.047 148.698 233.047 148.698L233.195 148.835C233.18 148.838 233.161 148.826 233.14 148.799C233.118 148.771 233.098 148.751 233.079 148.739C233.061 148.727 233.012 148.681 232.932 148.602L233.102 148.734L233.684 149.117L233.444 148.999L233.44 148.976L233.467 148.994C233.56 149.055 233.776 149.138 234.117 149.243C234.234 149.266 234.344 149.299 234.449 149.342C234.43 149.329 234.406 149.327 234.375 149.333C234.341 149.324 234.3 149.317 234.251 149.311C234.217 149.302 234.183 149.293 234.149 149.284C234.116 149.275 234.091 149.272 234.076 149.275L234.071 149.252L234.343 149.292C234.576 149.339 234.804 149.364 235.028 149.365C235.074 149.356 235.121 149.354 235.17 149.36C235.219 149.366 235.259 149.365 235.29 149.359C235.32 149.353 235.334 149.342 235.331 149.327C235.313 149.315 235.181 149.334 234.936 149.384L235.538 149.284L236.226 149.142C236.214 149.16 236.179 149.183 236.121 149.211C236.06 149.224 236.021 149.232 236.006 149.235L235.96 149.244L235.955 149.222C236.047 149.203 236.122 149.179 236.18 149.151C236.25 149.105 236.308 149.077 236.354 149.067C236.602 148.952 236.84 148.831 237.069 148.704L237.326 148.555L237.28 148.565L237.069 148.704C237.148 148.624 237.342 148.48 237.65 148.273C238.004 147.976 238.212 147.79 238.276 147.713C238.352 147.617 238.431 147.537 238.514 147.472L238.436 147.56C238.387 147.634 238.348 147.674 238.317 147.68L238.354 147.625C238.88 147.005 239.382 146.271 239.861 145.422L239.906 145.293C239.845 145.306 239.809 145.401 239.798 145.579C239.824 145.478 239.868 145.381 239.929 145.289L240.197 144.731C240.848 143.176 241.406 141.321 241.87 139.167L241.919 138.942L241.942 138.937L241.924 138.965C241.915 138.998 241.902 139.049 241.884 139.116C241.881 139.181 241.875 139.23 241.866 139.264L241.875 139.19C241.869 139.159 241.887 139.092 241.929 138.987L242.722 135.066L243.403 131.766C243.491 131.11 243.768 130.558 244.234 130.11C244.56 129.835 244.914 129.658 245.297 129.579C246.23 129.386 247.01 129.648 247.637 130.364C247.912 130.69 248.09 131.052 248.173 131.45C248.217 131.664 248.232 131.892 248.218 132.134C248.086 133.502 247.713 136.252 247.1 140.383C246.572 144.003 246.094 147.636 245.668 151.282C245.337 154.621 244.793 157.933 244.036 161.217C243.688 162.772 243.158 164.262 242.447 165.686C241.573 167.398 240.32 168.75 238.691 169.741C237.991 170.141 237.282 170.415 236.563 170.564Z" fill="white"/>
</svg>
